<mxfile host="app.diagrams.net" modified="2023-04-12T06:39:39.885Z" agent="Mozilla/5.0 (Windows NT 10.0; Win64; x64) AppleWebKit/537.36 (KHTML, like Gecko) Chrome/111.0.0.0 Safari/537.36" etag="aZes4pn1t1Nao4Ry3G02" version="21.1.6" type="github">
  <diagram name="Страница 1" id="FWtM8PsEe0bfIw8lXDTB">
    <mxGraphModel dx="1114" dy="1727" grid="1" gridSize="10" guides="1" tooltips="1" connect="1" arrows="1" fold="1" page="1" pageScale="1" pageWidth="827" pageHeight="1169" math="0" shadow="0">
      <root>
        <mxCell id="0" />
        <mxCell id="1" parent="0" />
        <mxCell id="qyZmzRei6EvfskZTFIJO-1" style="edgeStyle=orthogonalEdgeStyle;rounded=0;orthogonalLoop=1;jettySize=auto;html=1;exitX=0.5;exitY=1;exitDx=0;exitDy=0;" edge="1" parent="1" source="qyZmzRei6EvfskZTFIJO-2" target="qyZmzRei6EvfskZTFIJO-4">
          <mxGeometry relative="1" as="geometry">
            <mxPoint x="395" y="-1085" as="targetPoint" />
          </mxGeometry>
        </mxCell>
        <mxCell id="qyZmzRei6EvfskZTFIJO-2" value="start" style="rounded=1;whiteSpace=wrap;html=1;arcSize=50;" vertex="1" parent="1">
          <mxGeometry x="360" y="-1150" width="70" height="30" as="geometry" />
        </mxCell>
        <mxCell id="qyZmzRei6EvfskZTFIJO-3" style="edgeStyle=orthogonalEdgeStyle;rounded=0;orthogonalLoop=1;jettySize=auto;html=1;exitX=0.5;exitY=1;exitDx=0;exitDy=0;" edge="1" parent="1" source="qyZmzRei6EvfskZTFIJO-4" target="qyZmzRei6EvfskZTFIJO-7">
          <mxGeometry relative="1" as="geometry">
            <mxPoint x="394.79999999999995" y="-915" as="targetPoint" />
          </mxGeometry>
        </mxCell>
        <mxCell id="qyZmzRei6EvfskZTFIJO-4" value="int num = Console. ReadLine&lt;br&gt;string [ ] arr = new string [num]" style="rounded=0;whiteSpace=wrap;html=1;" vertex="1" parent="1">
          <mxGeometry x="313.13" y="-1070" width="163.75" height="110" as="geometry" />
        </mxCell>
        <mxCell id="qyZmzRei6EvfskZTFIJO-5" style="edgeStyle=orthogonalEdgeStyle;rounded=0;orthogonalLoop=1;jettySize=auto;html=1;exitX=0.5;exitY=1;exitDx=0;exitDy=0;" edge="1" parent="1" source="qyZmzRei6EvfskZTFIJO-7" target="qyZmzRei6EvfskZTFIJO-9">
          <mxGeometry relative="1" as="geometry">
            <mxPoint x="395" y="-780" as="targetPoint" />
          </mxGeometry>
        </mxCell>
        <mxCell id="qyZmzRei6EvfskZTFIJO-6" style="edgeStyle=orthogonalEdgeStyle;rounded=0;orthogonalLoop=1;jettySize=auto;html=1;exitX=1;exitY=0.5;exitDx=0;exitDy=0;entryX=1;entryY=0.5;entryDx=0;entryDy=0;" edge="1" parent="1" source="qyZmzRei6EvfskZTFIJO-7" target="qyZmzRei6EvfskZTFIJO-12">
          <mxGeometry relative="1" as="geometry">
            <mxPoint x="580" y="-830" as="targetPoint" />
            <Array as="points">
              <mxPoint x="550" y="-880" />
              <mxPoint x="550" y="-660" />
            </Array>
          </mxGeometry>
        </mxCell>
        <mxCell id="qyZmzRei6EvfskZTFIJO-7" value="for (int i = 0; i &amp;lt; arr. Length; i++)" style="rhombus;whiteSpace=wrap;html=1;" vertex="1" parent="1">
          <mxGeometry x="280" y="-920" width="230" height="80" as="geometry" />
        </mxCell>
        <mxCell id="qyZmzRei6EvfskZTFIJO-8" value="yes" style="text;html=1;align=center;verticalAlign=middle;resizable=0;points=[];autosize=1;strokeColor=none;fillColor=none;" vertex="1" parent="1">
          <mxGeometry x="400" y="-830" width="40" height="30" as="geometry" />
        </mxCell>
        <mxCell id="qyZmzRei6EvfskZTFIJO-9" value="arr [ i ] = Console.Readline" style="rounded=0;whiteSpace=wrap;html=1;" vertex="1" parent="1">
          <mxGeometry x="335" y="-780" width="120" height="60" as="geometry" />
        </mxCell>
        <mxCell id="qyZmzRei6EvfskZTFIJO-10" value="no" style="text;html=1;align=center;verticalAlign=middle;resizable=0;points=[];autosize=1;strokeColor=none;fillColor=none;" vertex="1" parent="1">
          <mxGeometry x="530" y="-905" width="40" height="30" as="geometry" />
        </mxCell>
        <mxCell id="qyZmzRei6EvfskZTFIJO-11" style="edgeStyle=orthogonalEdgeStyle;rounded=0;orthogonalLoop=1;jettySize=auto;html=1;exitX=0.5;exitY=1;exitDx=0;exitDy=0;" edge="1" parent="1" source="qyZmzRei6EvfskZTFIJO-12" target="qyZmzRei6EvfskZTFIJO-16">
          <mxGeometry relative="1" as="geometry">
            <mxPoint x="395" y="-539.99" as="targetPoint" />
            <Array as="points">
              <mxPoint x="395" y="-550" />
              <mxPoint x="395" y="-550" />
            </Array>
          </mxGeometry>
        </mxCell>
        <mxCell id="qyZmzRei6EvfskZTFIJO-12" value="int counter = 0" style="rounded=0;whiteSpace=wrap;html=1;" vertex="1" parent="1">
          <mxGeometry x="335" y="-690" width="120" height="60" as="geometry" />
        </mxCell>
        <mxCell id="qyZmzRei6EvfskZTFIJO-13" value="for (int i = 0; i &amp;lt; arr. Length; i++)" style="rhombus;whiteSpace=wrap;html=1;" vertex="1" parent="1">
          <mxGeometry x="280" y="-920" width="230" height="80" as="geometry" />
        </mxCell>
        <mxCell id="qyZmzRei6EvfskZTFIJO-14" style="edgeStyle=orthogonalEdgeStyle;rounded=0;orthogonalLoop=1;jettySize=auto;html=1;exitX=0.5;exitY=1;exitDx=0;exitDy=0;" edge="1" parent="1" source="qyZmzRei6EvfskZTFIJO-16" target="qyZmzRei6EvfskZTFIJO-20">
          <mxGeometry relative="1" as="geometry">
            <mxPoint x="395" y="-440" as="targetPoint" />
          </mxGeometry>
        </mxCell>
        <mxCell id="qyZmzRei6EvfskZTFIJO-15" style="edgeStyle=orthogonalEdgeStyle;rounded=0;orthogonalLoop=1;jettySize=auto;html=1;exitX=1;exitY=0.5;exitDx=0;exitDy=0;" edge="1" parent="1" source="qyZmzRei6EvfskZTFIJO-16" target="qyZmzRei6EvfskZTFIJO-25">
          <mxGeometry relative="1" as="geometry">
            <mxPoint x="490" y="-119" as="targetPoint" />
            <Array as="points">
              <mxPoint x="620" y="-555" />
              <mxPoint x="620" y="-250" />
            </Array>
          </mxGeometry>
        </mxCell>
        <mxCell id="qyZmzRei6EvfskZTFIJO-16" value="fot ( i =0; i &amp;lt; arr.Length; i++" style="rhombus;whiteSpace=wrap;html=1;" vertex="1" parent="1">
          <mxGeometry x="300" y="-595" width="190" height="80" as="geometry" />
        </mxCell>
        <mxCell id="qyZmzRei6EvfskZTFIJO-17" value="yes" style="text;html=1;align=center;verticalAlign=middle;resizable=0;points=[];autosize=1;strokeColor=none;fillColor=none;" vertex="1" parent="1">
          <mxGeometry x="394" y="-470" width="40" height="30" as="geometry" />
        </mxCell>
        <mxCell id="qyZmzRei6EvfskZTFIJO-18" style="edgeStyle=orthogonalEdgeStyle;rounded=0;orthogonalLoop=1;jettySize=auto;html=1;exitX=0.5;exitY=1;exitDx=0;exitDy=0;" edge="1" parent="1" source="qyZmzRei6EvfskZTFIJO-20" target="qyZmzRei6EvfskZTFIJO-22">
          <mxGeometry relative="1" as="geometry">
            <mxPoint x="395" y="-310" as="targetPoint" />
          </mxGeometry>
        </mxCell>
        <mxCell id="qyZmzRei6EvfskZTFIJO-19" style="edgeStyle=orthogonalEdgeStyle;rounded=0;orthogonalLoop=1;jettySize=auto;html=1;exitX=0;exitY=0.5;exitDx=0;exitDy=0;entryX=0;entryY=0.5;entryDx=0;entryDy=0;" edge="1" parent="1" source="qyZmzRei6EvfskZTFIJO-20" target="qyZmzRei6EvfskZTFIJO-16">
          <mxGeometry relative="1" as="geometry">
            <Array as="points">
              <mxPoint x="260" y="-440" />
              <mxPoint x="260" y="-555" />
            </Array>
          </mxGeometry>
        </mxCell>
        <mxCell id="qyZmzRei6EvfskZTFIJO-20" value="if ( arr [ i ] Length &amp;lt; 4" style="rhombus;whiteSpace=wrap;html=1;" vertex="1" parent="1">
          <mxGeometry x="285.01" y="-480" width="220" height="80" as="geometry" />
        </mxCell>
        <mxCell id="qyZmzRei6EvfskZTFIJO-21" style="edgeStyle=orthogonalEdgeStyle;rounded=0;orthogonalLoop=1;jettySize=auto;html=1;exitX=0;exitY=0.5;exitDx=0;exitDy=0;entryX=0;entryY=0.5;entryDx=0;entryDy=0;" edge="1" parent="1" source="qyZmzRei6EvfskZTFIJO-22" target="qyZmzRei6EvfskZTFIJO-16">
          <mxGeometry relative="1" as="geometry">
            <Array as="points">
              <mxPoint x="260" y="-340" />
              <mxPoint x="260" y="-555" />
            </Array>
          </mxGeometry>
        </mxCell>
        <mxCell id="qyZmzRei6EvfskZTFIJO-22" value="conter ++" style="rounded=0;whiteSpace=wrap;html=1;" vertex="1" parent="1">
          <mxGeometry x="335.01" y="-370" width="120" height="60" as="geometry" />
        </mxCell>
        <mxCell id="qyZmzRei6EvfskZTFIJO-23" value="no" style="text;html=1;align=center;verticalAlign=middle;resizable=0;points=[];autosize=1;strokeColor=none;fillColor=none;" vertex="1" parent="1">
          <mxGeometry x="510" y="-595" width="40" height="30" as="geometry" />
        </mxCell>
        <mxCell id="qyZmzRei6EvfskZTFIJO-24" style="edgeStyle=orthogonalEdgeStyle;rounded=0;orthogonalLoop=1;jettySize=auto;html=1;exitX=0.5;exitY=1;exitDx=0;exitDy=0;" edge="1" parent="1" source="qyZmzRei6EvfskZTFIJO-25" target="qyZmzRei6EvfskZTFIJO-28">
          <mxGeometry relative="1" as="geometry">
            <mxPoint x="395" y="-170" as="targetPoint" />
          </mxGeometry>
        </mxCell>
        <mxCell id="qyZmzRei6EvfskZTFIJO-25" value="string [ ] arrayNew = new string [ counter]&amp;nbsp;&lt;br&gt;int j = 0" style="rounded=0;whiteSpace=wrap;html=1;" vertex="1" parent="1">
          <mxGeometry x="335.01" y="-280" width="120" height="60" as="geometry" />
        </mxCell>
        <mxCell id="qyZmzRei6EvfskZTFIJO-26" value="" style="edgeStyle=orthogonalEdgeStyle;rounded=0;orthogonalLoop=1;jettySize=auto;html=1;" edge="1" parent="1" source="qyZmzRei6EvfskZTFIJO-28" target="qyZmzRei6EvfskZTFIJO-31">
          <mxGeometry relative="1" as="geometry" />
        </mxCell>
        <mxCell id="qyZmzRei6EvfskZTFIJO-27" style="edgeStyle=orthogonalEdgeStyle;rounded=0;orthogonalLoop=1;jettySize=auto;html=1;exitX=1;exitY=0.5;exitDx=0;exitDy=0;" edge="1" parent="1" source="qyZmzRei6EvfskZTFIJO-28" target="qyZmzRei6EvfskZTFIJO-39">
          <mxGeometry relative="1" as="geometry">
            <mxPoint x="570" y="-130" as="targetPoint" />
          </mxGeometry>
        </mxCell>
        <mxCell id="qyZmzRei6EvfskZTFIJO-28" value="for (i =0; i &amp;lt; arr.Length; i ++)" style="rhombus;whiteSpace=wrap;html=1;" vertex="1" parent="1">
          <mxGeometry x="295" y="-170" width="200" height="80" as="geometry" />
        </mxCell>
        <mxCell id="qyZmzRei6EvfskZTFIJO-29" value="" style="edgeStyle=orthogonalEdgeStyle;rounded=0;orthogonalLoop=1;jettySize=auto;html=1;" edge="1" parent="1" source="qyZmzRei6EvfskZTFIJO-31" target="qyZmzRei6EvfskZTFIJO-35">
          <mxGeometry relative="1" as="geometry" />
        </mxCell>
        <mxCell id="qyZmzRei6EvfskZTFIJO-30" style="edgeStyle=orthogonalEdgeStyle;rounded=0;orthogonalLoop=1;jettySize=auto;html=1;exitX=0;exitY=0.5;exitDx=0;exitDy=0;entryX=0;entryY=0.5;entryDx=0;entryDy=0;" edge="1" parent="1" source="qyZmzRei6EvfskZTFIJO-31" target="qyZmzRei6EvfskZTFIJO-28">
          <mxGeometry relative="1" as="geometry" />
        </mxCell>
        <mxCell id="qyZmzRei6EvfskZTFIJO-31" value="if (arr [ i ] Length &amp;lt; 4 )" style="rhombus;whiteSpace=wrap;html=1;" vertex="1" parent="1">
          <mxGeometry x="300" y="-30" width="190" height="80" as="geometry" />
        </mxCell>
        <mxCell id="qyZmzRei6EvfskZTFIJO-32" value="yes&amp;nbsp;" style="text;html=1;align=center;verticalAlign=middle;resizable=0;points=[];autosize=1;strokeColor=none;fillColor=none;" vertex="1" parent="1">
          <mxGeometry x="390" y="-80" width="50" height="30" as="geometry" />
        </mxCell>
        <mxCell id="qyZmzRei6EvfskZTFIJO-33" value="no&amp;nbsp;" style="text;html=1;align=center;verticalAlign=middle;resizable=0;points=[];autosize=1;strokeColor=none;fillColor=none;" vertex="1" parent="1">
          <mxGeometry x="500" y="-160" width="40" height="30" as="geometry" />
        </mxCell>
        <mxCell id="qyZmzRei6EvfskZTFIJO-34" style="edgeStyle=orthogonalEdgeStyle;rounded=0;orthogonalLoop=1;jettySize=auto;html=1;exitX=0;exitY=0.25;exitDx=0;exitDy=0;entryX=0;entryY=0.5;entryDx=0;entryDy=0;" edge="1" parent="1" source="qyZmzRei6EvfskZTFIJO-35" target="qyZmzRei6EvfskZTFIJO-28">
          <mxGeometry relative="1" as="geometry" />
        </mxCell>
        <mxCell id="qyZmzRei6EvfskZTFIJO-35" value="arrayNew [ j ] = arr [ i ]&amp;nbsp;&lt;br&gt;j ++" style="whiteSpace=wrap;html=1;" vertex="1" parent="1">
          <mxGeometry x="327.51" y="100" width="135" height="60" as="geometry" />
        </mxCell>
        <mxCell id="qyZmzRei6EvfskZTFIJO-36" value="yes&amp;nbsp;" style="text;html=1;align=center;verticalAlign=middle;resizable=0;points=[];autosize=1;strokeColor=none;fillColor=none;" vertex="1" parent="1">
          <mxGeometry x="395" y="55" width="50" height="30" as="geometry" />
        </mxCell>
        <mxCell id="qyZmzRei6EvfskZTFIJO-37" value="no&amp;nbsp;" style="text;html=1;align=center;verticalAlign=middle;resizable=0;points=[];autosize=1;strokeColor=none;fillColor=none;" vertex="1" parent="1">
          <mxGeometry x="270" y="-85" width="40" height="30" as="geometry" />
        </mxCell>
        <mxCell id="qyZmzRei6EvfskZTFIJO-38" style="edgeStyle=orthogonalEdgeStyle;rounded=0;orthogonalLoop=1;jettySize=auto;html=1;exitX=1;exitY=0.5;exitDx=0;exitDy=0;" edge="1" parent="1" source="qyZmzRei6EvfskZTFIJO-39" target="qyZmzRei6EvfskZTFIJO-40">
          <mxGeometry relative="1" as="geometry">
            <mxPoint x="690" y="-130" as="targetPoint" />
          </mxGeometry>
        </mxCell>
        <mxCell id="qyZmzRei6EvfskZTFIJO-39" value="print arrayNew" style="rounded=0;whiteSpace=wrap;html=1;" vertex="1" parent="1">
          <mxGeometry x="540" y="-160" width="120" height="60" as="geometry" />
        </mxCell>
        <mxCell id="qyZmzRei6EvfskZTFIJO-40" value="end" style="rounded=1;whiteSpace=wrap;html=1;arcSize=50;" vertex="1" parent="1">
          <mxGeometry x="730" y="-150" width="50" height="40" as="geometry" />
        </mxCell>
        <mxCell id="qyZmzRei6EvfskZTFIJO-41" value="yes&amp;nbsp;" style="text;html=1;align=center;verticalAlign=middle;resizable=0;points=[];autosize=1;strokeColor=none;fillColor=none;" vertex="1" parent="1">
          <mxGeometry x="385" y="-395" width="50" height="30" as="geometry" />
        </mxCell>
        <mxCell id="qyZmzRei6EvfskZTFIJO-42" value="no&amp;nbsp;" style="text;html=1;align=center;verticalAlign=middle;resizable=0;points=[];autosize=1;strokeColor=none;fillColor=none;" vertex="1" parent="1">
          <mxGeometry x="270" y="-515" width="40" height="30" as="geometry" />
        </mxCell>
      </root>
    </mxGraphModel>
  </diagram>
</mxfile>
